# File created by Blade
# Date/Time:  Mon Sep 22 17:46:01 2014
# Frame Rate: 120.000 fps
#------------------------------------------------------
:FULLY-SPECIFIED
:DEGREES
3824
root 3.627549 37.993296 4.903117 14.455720 -46.752245 -29.705583
RightUpLeg 15.031006 -38.333276 -16.602024
RightLeg 120.137769 -0.000000 -0.000000
RightFoot -5.844095 -19.619123 13.679494
RightToeBase -4.206126 -0.000000 0.000000
LeftUpLeg 16.525869 18.049370 14.566492
LeftLeg -4.110998 -0.000000 0.000000
LeftFoot -17.996817 33.705551 -15.726045
LeftToeBase 3.555350 -0.000000 -0.000000
Spine 14.975665 -3.131035 -14.529146
RightShoulder -3.830608 -33.359171 -4.106480
RightArm 12.794290 -11.161782 72.004352
RightForeArm 12.167962 -0.000000 67.008210
RightHand -1.827129 -0.000000 -19.492093
RightHandThumb1 -24.326973 -0.000000 -32.862282
LeftShoulder -18.112675 31.092773 11.326476
LeftArm 49.867870 -52.777635 -70.300185
LeftForeArm 25.668797 -0.000000 104.608869
LeftHand -36.515616 -0.000000 27.932398
LeftHandThumb1 -26.253704 0.000000 33.147579
Head 21.725732 35.136076 21.304386
3825
root 3.621272 37.984236 4.920598 14.525473 -46.879971 -29.663023
RightUpLeg 14.892368 -37.950909 -16.319006
RightLeg 118.569197 -0.000000 -0.000000
RightFoot -6.431787 -20.226548 13.814893
RightToeBase -3.619189 -0.000000 0.000000
LeftUpLeg 16.510336 18.126864 14.465741
LeftLeg -4.145615 -0.000000 0.000000
LeftFoot -18.048419 33.728333 -15.771771
LeftToeBase 3.566748 -0.000000 -0.000000
Spine 14.751982 -3.019016 -14.600834
RightShoulder -3.793197 -33.322563 -4.113225
RightArm 12.891247 -11.173996 71.942177
RightForeArm 12.319122 -0.000000 66.799453
RightHand -1.795269 -0.000000 -19.541227
RightHandThumb1 -24.326973 -0.000000 -32.862282
LeftShoulder -18.072923 31.105961 11.380996
LeftArm 49.831400 -52.878341 -70.309705
LeftForeArm 25.686039 -0.000000 104.570629
LeftHand -36.521009 -0.000000 27.985718
LeftHandThumb1 -26.253704 0.000000 33.147579
Head 21.801179 35.076464 21.393688
3826
root 3.620867 37.975234 4.934934 14.573379 -47.015483 -29.585097
RightUpLeg 14.702019 -37.564555 -16.008192
RightLeg 117.050209 -0.000000 -0.000000
RightFoot -6.939802 -20.864257 13.942752
RightToeBase -3.259479 -0.000000 0.000000
LeftUpLeg 16.458037 18.211488 14.328872
LeftLeg -4.144224 -0.000000 0.000000
LeftFoot -18.106850 33.768617 -15.831697
LeftToeBase 3.587510 -0.000000 -0.000000
Spine 14.542931 -2.898974 -14.707428
RightShoulder -3.747877 -33.263499 -4.131239
RightArm 12.984838 -11.143570 71.947351
RightForeArm 12.311813 -0.000000 66.597775
RightHand -1.907591 -0.000000 -19.525963
RightHandThumb1 -24.326973 -0.000000 -32.862282
LeftShoulder -18.023565 31.119290 11.443855
LeftArm 49.886325 -52.993644 -70.416572
LeftForeArm 25.769539 0.000000 104.512127
LeftHand -36.512332 -0.000000 27.985205
LeftHandThumb1 -26.253704 0.000000 33.147579
Head 21.867158 35.016279 21.465781
3827
root 3.619973 37.965994 4.950952 14.567437 -47.122381 -29.474730
RightUpLeg 14.609471 -37.188008 -15.772453
RightLeg 115.549633 -0.000000 -0.000000
RightFoot -7.419910 -21.406287 14.018741
RightToeBase -3.022018 -0.000000 0.000000
LeftUpLeg 16.428413 18.249352 14.178194
LeftLeg -4.150189 -0.000000 0.000000
LeftFoot -18.171402 33.824786 -15.894378
LeftToeBase 3.602633 -0.000000 -0.000000
Spine 14.379378 -2.825212 -14.842381
RightShoulder -3.671605 -33.176094 -4.167546
RightArm 13.050051 -11.150141 71.948645
RightForeArm 12.363029 -0.000000 66.417464
RightHand -1.908002 0.000000 -19.506021
RightHandThumb1 -24.326973 -0.000000 -32.862282
LeftShoulder -17.997530 31.114363 11.503761
LeftArm 49.978862 -53.109886 -70.571003
LeftForeArm 25.765860 -0.000000 104.465690
LeftHand -36.490245 -0.000000 28.001607
LeftHandThumb1 -26.253704 0.000000 33.147579
Head 21.925310 34.959237 21.541504
3828
root 3.617059 37.958119 4.966694 14.534777 -47.170778 -29.360070
RightUpLeg 14.570744 -36.844414 -15.526910
RightLeg 114.108784 -0.000000 -0.000000
RightFoot -7.945802 -21.872883 14.184274
RightToeBase -2.714617 -0.000000 0.000000
LeftUpLeg 16.393251 18.251997 14.052976
LeftLeg -4.129277 -0.000000 0.000000
LeftFoot -18.233364 33.845228 -15.944845
LeftToeBase 3.608756 -0.000000 -0.000000
Spine 14.265303 -2.819487 -14.971842
RightShoulder -3.593447 -33.096252 -4.192360
RightArm 13.129427 -11.170433 71.923658
RightForeArm 12.350244 -0.000000 66.268876
RightHand -1.861658 -0.000000 -19.619767
RightHandThumb1 -24.326973 -0.000000 -32.862282
LeftShoulder -17.999587 31.091066 11.531871
LeftArm 50.076820 -53.216447 -70.715332
LeftForeArm 25.844694 -0.000000 104.422842
LeftHand -36.470090 -0.000000 28.114288
LeftHandThumb1 -26.253704 0.000000 33.147579
Head 22.021485 34.966556 21.636826
